<svg width="240" height="138" viewBox="0 0 240 138" fill="none" xmlns="http://www.w3.org/2000/svg">
<path d="M0 4C0 1.79086 1.79086 0 4 0H236C238.209 0 240 1.79086 240 4V138H0V4Z" fill="#E7E7E7"/>
<g clip-path="url(#clip0_270_7916)">
<path d="M100.005 44.5C100.005 43.1739 100.532 41.9021 101.469 40.9645C102.407 40.0268 103.679 39.5 105.005 39.5H135.005C136.331 39.5 137.603 40.0268 138.54 40.9645C139.478 41.9021 140.005 43.1739 140.005 44.5V69.5C140.005 70.8261 139.478 72.0979 138.54 73.0355C137.603 73.9732 136.331 74.5 135.005 74.5H105.005C103.679 74.5 102.407 73.9732 101.469 73.0355C100.532 72.0979 100.005 70.8261 100.005 69.5V44.5ZM102.505 67V69.5C102.505 70.163 102.768 70.7989 103.237 71.2678C103.706 71.7366 104.342 72 105.005 72H135.005C135.668 72 136.304 71.7366 136.773 71.2678C137.241 70.7989 137.505 70.163 137.505 69.5V60.75L128.062 55.8825C127.828 55.7651 127.562 55.7243 127.304 55.766C127.045 55.8078 126.806 55.9298 126.62 56.115L117.345 65.39L110.695 60.96C110.455 60.8001 110.167 60.7283 109.88 60.7565C109.593 60.7848 109.324 60.9114 109.12 61.115L102.505 67ZM115.005 50.75C115.005 49.7554 114.61 48.8016 113.907 48.0983C113.203 47.3951 112.249 47 111.255 47C110.26 47 109.306 47.3951 108.603 48.0983C107.9 48.8016 107.505 49.7554 107.505 50.75C107.505 51.7446 107.9 52.6984 108.603 53.4017C109.306 54.1049 110.26 54.5 111.255 54.5C112.249 54.5 113.203 54.1049 113.907 53.4017C114.61 52.6984 115.005 51.7446 115.005 50.75Z" fill="#858585"/>
</g>
<path d="M63.943 92.229C64.073 92.229 64.177 92.268 64.255 92.346C64.3417 92.424 64.385 92.5323 64.385 92.671V95.908C64.385 96.116 64.3503 96.272 64.281 96.376C64.2203 96.48 64.1033 96.5623 63.93 96.623C63.5833 96.7703 63.163 96.8873 62.669 96.974C62.175 97.0607 61.681 97.104 61.187 97.104C60.277 97.104 59.4927 96.9177 58.834 96.545C58.1753 96.1723 57.6683 95.635 57.313 94.933C56.9663 94.231 56.793 93.3903 56.793 92.411C56.793 91.449 56.9663 90.617 57.313 89.915C57.6597 89.213 58.158 88.6757 58.808 88.303C59.458 87.9217 60.2207 87.731 61.096 87.731C61.7027 87.731 62.266 87.8263 62.786 88.017C63.306 88.199 63.7437 88.4633 64.099 88.81C64.2463 88.9573 64.32 89.109 64.32 89.265C64.32 89.3863 64.2853 89.4947 64.216 89.59C64.1467 89.6767 64.06 89.72 63.956 89.72C63.852 89.72 63.7307 89.668 63.592 89.564C63.1413 89.2173 62.734 88.979 62.37 88.849C62.006 88.7103 61.5857 88.641 61.109 88.641C60.0777 88.641 59.2847 88.966 58.73 89.616C58.184 90.266 57.911 91.1977 57.911 92.411C57.911 93.6503 58.1883 94.595 58.743 95.245C59.3063 95.8863 60.1297 96.207 61.213 96.207C62.019 96.207 62.7513 96.0857 63.41 95.843V93.061H61.512C61.3647 93.061 61.2477 93.022 61.161 92.944C61.0743 92.866 61.031 92.7663 61.031 92.645C61.031 92.515 61.0743 92.4153 61.161 92.346C61.2477 92.268 61.3647 92.229 61.512 92.229H63.943ZM68.9692 90.513C70.5552 90.513 71.3482 91.345 71.3482 93.009V96.545C71.3482 96.701 71.3006 96.8267 71.2052 96.922C71.1186 97.0173 70.9972 97.065 70.8412 97.065C70.6852 97.065 70.5596 97.0173 70.4642 96.922C70.3689 96.8267 70.3212 96.701 70.3212 96.545V95.921C70.1566 96.2937 69.9052 96.584 69.5672 96.792C69.2292 96.9913 68.8392 97.091 68.3972 97.091C67.9899 97.091 67.6129 97.0087 67.2662 96.844C66.9282 96.6793 66.6596 96.4497 66.4602 96.155C66.2609 95.8603 66.1612 95.5353 66.1612 95.18C66.1612 94.7033 66.2826 94.335 66.5252 94.075C66.7679 93.8063 67.1666 93.6157 67.7212 93.503C68.2759 93.3817 69.0472 93.321 70.0352 93.321H70.3212V92.892C70.3212 92.372 70.2129 91.9907 69.9962 91.748C69.7882 91.5053 69.4459 91.384 68.9692 91.384C68.3799 91.384 67.7819 91.5443 67.1752 91.865C66.9412 92.0123 66.7766 92.086 66.6812 92.086C66.5772 92.086 66.4906 92.047 66.4212 91.969C66.3519 91.891 66.3172 91.7913 66.3172 91.67C66.3172 91.5487 66.3519 91.4447 66.4212 91.358C66.4992 91.2627 66.6206 91.1673 66.7852 91.072C67.0886 90.8987 67.4309 90.7643 67.8122 90.669C68.2022 90.565 68.5879 90.513 68.9692 90.513ZM68.5402 96.259C69.0602 96.259 69.4849 96.0857 69.8142 95.739C70.1522 95.3837 70.3212 94.9287 70.3212 94.374V93.997H70.0872C69.3246 93.997 68.7439 94.0317 68.3452 94.101C67.9466 94.1617 67.6606 94.27 67.4872 94.426C67.3226 94.5733 67.2402 94.7943 67.2402 95.089C67.2402 95.427 67.3616 95.7087 67.6042 95.934C67.8556 96.1507 68.1676 96.259 68.5402 96.259ZM80.3218 90.513C81.7258 90.513 82.4278 91.3493 82.4278 93.022V96.545C82.4278 96.7097 82.3801 96.8397 82.2848 96.935C82.1894 97.0217 82.0638 97.065 81.9078 97.065C81.7518 97.065 81.6218 97.0217 81.5178 96.935C81.4224 96.8397 81.3748 96.7097 81.3748 96.545V93.048C81.3748 92.4673 81.2708 92.047 81.0628 91.787C80.8548 91.527 80.5298 91.397 80.0878 91.397C79.5591 91.397 79.1431 91.5747 78.8398 91.93C78.5364 92.2853 78.3848 92.7663 78.3848 93.373V96.545C78.3848 96.7097 78.3328 96.8397 78.2288 96.935C78.1334 97.0217 78.0078 97.065 77.8518 97.065C77.6958 97.065 77.5701 97.0217 77.4748 96.935C77.3794 96.8397 77.3318 96.7097 77.3318 96.545V93.048C77.3318 92.4673 77.2278 92.047 77.0198 91.787C76.8118 91.527 76.4824 91.397 76.0318 91.397C75.5118 91.397 75.0958 91.5747 74.7838 91.93C74.4804 92.2853 74.3288 92.7663 74.3288 93.373V96.545C74.3288 96.7097 74.2811 96.8397 74.1858 96.935C74.0904 97.0217 73.9648 97.065 73.8088 97.065C73.6528 97.065 73.5228 97.0217 73.4188 96.935C73.3234 96.8397 73.2758 96.7097 73.2758 96.545V91.059C73.2758 90.903 73.3234 90.7773 73.4188 90.682C73.5228 90.5867 73.6528 90.539 73.8088 90.539C73.9561 90.539 74.0774 90.5867 74.1728 90.682C74.2681 90.7687 74.3158 90.89 74.3158 91.046V91.67C74.5064 91.2973 74.7708 91.0113 75.1088 90.812C75.4468 90.6127 75.8368 90.513 76.2788 90.513C77.2668 90.513 77.9124 90.929 78.2158 91.761C78.3978 91.3797 78.6751 91.0763 79.0478 90.851C79.4204 90.6257 79.8451 90.513 80.3218 90.513ZM87.5311 90.513C88.0858 90.513 88.5754 90.6473 89.0001 90.916C89.4248 91.1847 89.7541 91.566 89.9881 92.06C90.2221 92.554 90.3391 93.126 90.3391 93.776C90.3391 94.4347 90.2221 95.0153 89.9881 95.518C89.7541 96.012 89.4248 96.3977 89.0001 96.675C88.5754 96.9523 88.0858 97.091 87.5311 97.091C87.0371 97.091 86.6038 96.9827 86.2311 96.766C85.8671 96.5493 85.5898 96.2417 85.3991 95.843V96.545C85.3991 96.701 85.3514 96.8267 85.2561 96.922C85.1694 97.0173 85.0438 97.065 84.8791 97.065C84.7144 97.065 84.5844 97.0173 84.4891 96.922C84.3938 96.8267 84.3461 96.701 84.3461 96.545V88.277C84.3461 88.1297 84.3938 88.0083 84.4891 87.913C84.5844 87.8177 84.7144 87.77 84.8791 87.77C85.0438 87.77 85.1694 87.8177 85.2561 87.913C85.3514 87.9997 85.3991 88.121 85.3991 88.277V91.761C85.5898 91.3623 85.8671 91.0547 86.2311 90.838C86.6038 90.6213 87.0371 90.513 87.5311 90.513ZM87.3231 96.22C87.9384 96.22 88.4151 96.0077 88.7531 95.583C89.0911 95.1497 89.2601 94.5473 89.2601 93.776C89.2601 93.022 89.0911 92.437 88.7531 92.021C88.4151 91.605 87.9384 91.397 87.3231 91.397C86.7078 91.397 86.2311 91.605 85.8931 92.021C85.5638 92.437 85.3991 93.0307 85.3991 93.802C85.3991 94.5733 85.5638 95.1713 85.8931 95.596C86.2311 96.012 86.7078 96.22 87.3231 96.22ZM94.4995 90.513C96.0855 90.513 96.8785 91.345 96.8785 93.009V96.545C96.8785 96.701 96.8308 96.8267 96.7355 96.922C96.6488 97.0173 96.5275 97.065 96.3715 97.065C96.2155 97.065 96.0898 97.0173 95.9945 96.922C95.8992 96.8267 95.8515 96.701 95.8515 96.545V95.921C95.6868 96.2937 95.4355 96.584 95.0975 96.792C94.7595 96.9913 94.3695 97.091 93.9275 97.091C93.5202 97.091 93.1432 97.0087 92.7965 96.844C92.4585 96.6793 92.1898 96.4497 91.9905 96.155C91.7912 95.8603 91.6915 95.5353 91.6915 95.18C91.6915 94.7033 91.8128 94.335 92.0555 94.075C92.2982 93.8063 92.6968 93.6157 93.2515 93.503C93.8062 93.3817 94.5775 93.321 95.5655 93.321H95.8515V92.892C95.8515 92.372 95.7432 91.9907 95.5265 91.748C95.3185 91.5053 94.9762 91.384 94.4995 91.384C93.9102 91.384 93.3122 91.5443 92.7055 91.865C92.4715 92.0123 92.3068 92.086 92.2115 92.086C92.1075 92.086 92.0208 92.047 91.9515 91.969C91.8822 91.891 91.8475 91.7913 91.8475 91.67C91.8475 91.5487 91.8822 91.4447 91.9515 91.358C92.0295 91.2627 92.1508 91.1673 92.3155 91.072C92.6188 90.8987 92.9612 90.7643 93.3425 90.669C93.7325 90.565 94.1182 90.513 94.4995 90.513ZM94.0705 96.259C94.5905 96.259 95.0152 96.0857 95.3445 95.739C95.6825 95.3837 95.8515 94.9287 95.8515 94.374V93.997H95.6175C94.8548 93.997 94.2742 94.0317 93.8755 94.101C93.4768 94.1617 93.1908 94.27 93.0175 94.426C92.8528 94.5733 92.7705 94.7943 92.7705 95.089C92.7705 95.427 92.8918 95.7087 93.1345 95.934C93.3858 96.1507 93.6978 96.259 94.0705 96.259ZM101.939 90.539C102.303 90.513 102.485 90.6603 102.485 90.981C102.485 91.1197 102.446 91.2323 102.368 91.319C102.29 91.397 102.156 91.4447 101.965 91.462L101.575 91.501C100.994 91.553 100.561 91.761 100.275 92.125C99.9977 92.4803 99.8591 92.9007 99.8591 93.386V96.545C99.8591 96.7183 99.8114 96.8483 99.7161 96.935C99.6207 97.0217 99.4951 97.065 99.3391 97.065C99.1831 97.065 99.0531 97.0217 98.9491 96.935C98.8537 96.8397 98.8061 96.7097 98.8061 96.545V91.059C98.8061 90.8943 98.8581 90.7687 98.9621 90.682C99.0661 90.5867 99.1917 90.539 99.3391 90.539C99.4777 90.539 99.5947 90.5867 99.6901 90.682C99.7854 90.7687 99.8331 90.89 99.8331 91.046V91.774C100.015 91.3927 100.271 91.1023 100.6 90.903C100.938 90.7037 101.324 90.5867 101.757 90.552L101.939 90.539ZM109.666 96.233C109.969 96.259 110.121 96.3977 110.121 96.649C110.121 96.7963 110.064 96.909 109.952 96.987C109.848 97.0563 109.687 97.0823 109.471 97.065L109.12 97.039C108.426 96.987 107.915 96.779 107.586 96.415C107.256 96.051 107.092 95.5007 107.092 94.764V91.501H106.221C106.073 91.501 105.956 91.4663 105.87 91.397C105.792 91.319 105.753 91.2193 105.753 91.098C105.753 90.968 105.792 90.864 105.87 90.786C105.956 90.708 106.073 90.669 106.221 90.669H107.092V89.2C107.092 89.0353 107.139 88.9097 107.235 88.823C107.33 88.7277 107.46 88.68 107.625 88.68C107.781 88.68 107.906 88.7277 108.002 88.823C108.097 88.9097 108.145 89.0353 108.145 89.2V90.669H109.588C109.726 90.669 109.835 90.708 109.913 90.786C109.999 90.864 110.043 90.968 110.043 91.098C110.043 91.2193 109.999 91.319 109.913 91.397C109.835 91.4663 109.726 91.501 109.588 91.501H108.145V94.816C108.145 95.2927 108.24 95.6393 108.431 95.856C108.63 96.064 108.925 96.181 109.315 96.207L109.666 96.233ZM111.692 97.065C111.536 97.065 111.406 97.0217 111.302 96.935C111.206 96.8397 111.159 96.7097 111.159 96.545V91.059C111.159 90.8943 111.206 90.7687 111.302 90.682C111.406 90.5867 111.536 90.539 111.692 90.539C111.848 90.539 111.973 90.5867 112.069 90.682C112.164 90.7687 112.212 90.8943 112.212 91.059V96.545C112.212 96.7183 112.164 96.8483 112.069 96.935C111.973 97.0217 111.848 97.065 111.692 97.065ZM111.692 89.174C111.484 89.174 111.315 89.1133 111.185 88.992C111.055 88.8707 110.99 88.7103 110.99 88.511C110.99 88.3203 111.055 88.1643 111.185 88.043C111.315 87.9217 111.484 87.861 111.692 87.861C111.9 87.861 112.069 87.9217 112.199 88.043C112.329 88.1643 112.394 88.3203 112.394 88.511C112.394 88.7103 112.329 88.8707 112.199 88.992C112.069 89.1133 111.9 89.174 111.692 89.174ZM119.263 87.77C119.428 87.77 119.558 87.8177 119.653 87.913C119.748 88.0083 119.796 88.1297 119.796 88.277V96.545C119.796 96.701 119.748 96.8267 119.653 96.922C119.558 97.0173 119.428 97.065 119.263 97.065C119.098 97.065 118.968 97.0173 118.873 96.922C118.786 96.8267 118.743 96.701 118.743 96.545V95.843C118.552 96.2417 118.271 96.5493 117.898 96.766C117.534 96.9827 117.105 97.091 116.611 97.091C116.056 97.091 115.567 96.9523 115.142 96.675C114.717 96.3977 114.388 96.012 114.154 95.518C113.92 95.0153 113.803 94.4347 113.803 93.776C113.803 93.126 113.92 92.554 114.154 92.06C114.388 91.566 114.717 91.1847 115.142 90.916C115.567 90.6473 116.056 90.513 116.611 90.513C117.105 90.513 117.534 90.6213 117.898 90.838C118.271 91.0547 118.552 91.3623 118.743 91.761V88.277C118.743 88.121 118.786 87.9997 118.873 87.913C118.968 87.8177 119.098 87.77 119.263 87.77ZM116.819 96.22C117.434 96.22 117.907 96.012 118.236 95.596C118.574 95.1713 118.743 94.5733 118.743 93.802C118.743 93.0307 118.574 92.437 118.236 92.021C117.907 91.605 117.434 91.397 116.819 91.397C116.204 91.397 115.723 91.605 115.376 92.021C115.038 92.437 114.869 93.022 114.869 93.776C114.869 94.5473 115.038 95.1497 115.376 95.583C115.723 96.0077 116.204 96.22 116.819 96.22ZM124.333 90.513C125.919 90.513 126.712 91.345 126.712 93.009V96.545C126.712 96.701 126.665 96.8267 126.569 96.922C126.483 97.0173 126.361 97.065 126.205 97.065C126.049 97.065 125.924 97.0173 125.828 96.922C125.733 96.8267 125.685 96.701 125.685 96.545V95.921C125.521 96.2937 125.269 96.584 124.931 96.792C124.593 96.9913 124.203 97.091 123.761 97.091C123.354 97.091 122.977 97.0087 122.63 96.844C122.292 96.6793 122.024 96.4497 121.824 96.155C121.625 95.8603 121.525 95.5353 121.525 95.18C121.525 94.7033 121.647 94.335 121.889 94.075C122.132 93.8063 122.531 93.6157 123.085 93.503C123.64 93.3817 124.411 93.321 125.399 93.321H125.685V92.892C125.685 92.372 125.577 91.9907 125.36 91.748C125.152 91.5053 124.81 91.384 124.333 91.384C123.744 91.384 123.146 91.5443 122.539 91.865C122.305 92.0123 122.141 92.086 122.045 92.086C121.941 92.086 121.855 92.047 121.785 91.969C121.716 91.891 121.681 91.7913 121.681 91.67C121.681 91.5487 121.716 91.4447 121.785 91.358C121.863 91.2627 121.985 91.1673 122.149 91.072C122.453 90.8987 122.795 90.7643 123.176 90.669C123.566 90.565 123.952 90.513 124.333 90.513ZM123.904 96.259C124.424 96.259 124.849 96.0857 125.178 95.739C125.516 95.3837 125.685 94.9287 125.685 94.374V93.997H125.451C124.689 93.997 124.108 94.0317 123.709 94.101C123.311 94.1617 123.025 94.27 122.851 94.426C122.687 94.5733 122.604 94.7943 122.604 95.089C122.604 95.427 122.726 95.7087 122.968 95.934C123.22 96.1507 123.532 96.259 123.904 96.259ZM133.697 96.168C133.836 96.298 133.905 96.4367 133.905 96.584C133.905 96.714 133.857 96.8267 133.762 96.922C133.675 97.0173 133.567 97.065 133.437 97.065C133.324 97.065 133.207 97.013 133.086 96.909L129.693 93.984V96.545C129.693 96.7097 129.641 96.8397 129.537 96.935C129.442 97.0217 129.32 97.065 129.173 97.065C129.017 97.065 128.887 97.0217 128.783 96.935C128.688 96.8397 128.64 96.7097 128.64 96.545V88.29C128.64 88.1253 128.688 87.9997 128.783 87.913C128.887 87.8177 129.017 87.77 129.173 87.77C129.32 87.77 129.442 87.8177 129.537 87.913C129.641 87.9997 129.693 88.1253 129.693 88.29V93.568L132.8 90.721C132.904 90.617 133.021 90.565 133.151 90.565C133.281 90.565 133.394 90.6127 133.489 90.708C133.584 90.8033 133.632 90.916 133.632 91.046C133.632 91.1933 133.571 91.3233 133.45 91.436L130.889 93.724L133.697 96.168ZM141.417 96.233C141.72 96.259 141.872 96.3977 141.872 96.649C141.872 96.7963 141.815 96.909 141.703 96.987C141.599 97.0563 141.438 97.0823 141.222 97.065L140.871 97.039C140.177 96.987 139.666 96.779 139.337 96.415C139.007 96.051 138.843 95.5007 138.843 94.764V91.501H137.972C137.824 91.501 137.707 91.4663 137.621 91.397C137.543 91.319 137.504 91.2193 137.504 91.098C137.504 90.968 137.543 90.864 137.621 90.786C137.707 90.708 137.824 90.669 137.972 90.669H138.843V89.2C138.843 89.0353 138.89 88.9097 138.986 88.823C139.081 88.7277 139.211 88.68 139.376 88.68C139.532 88.68 139.657 88.7277 139.753 88.823C139.848 88.9097 139.896 89.0353 139.896 89.2V90.669H141.339C141.477 90.669 141.586 90.708 141.664 90.786C141.75 90.864 141.794 90.968 141.794 91.098C141.794 91.2193 141.75 91.319 141.664 91.397C141.586 91.4663 141.477 91.501 141.339 91.501H139.896V94.816C139.896 95.2927 139.991 95.6393 140.182 95.856C140.381 96.064 140.676 96.181 141.066 96.207L141.417 96.233ZM147.811 95.531C147.906 95.531 147.988 95.57 148.058 95.648C148.127 95.726 148.162 95.8257 148.162 95.947C148.162 96.1637 148.01 96.363 147.707 96.545C147.395 96.727 147.065 96.8657 146.719 96.961C146.372 97.0477 146.034 97.091 145.705 97.091C144.725 97.091 143.95 96.8007 143.378 96.22C142.814 95.6393 142.533 94.8377 142.533 93.815C142.533 93.165 142.658 92.593 142.91 92.099C143.161 91.5963 143.512 91.2063 143.963 90.929C144.422 90.6517 144.942 90.513 145.523 90.513C146.346 90.513 147 90.7817 147.486 91.319C147.971 91.8563 148.214 92.5843 148.214 93.503C148.214 93.6763 148.179 93.802 148.11 93.88C148.04 93.958 147.928 93.997 147.772 93.997H143.586C143.664 95.4877 144.37 96.233 145.705 96.233C146.043 96.233 146.333 96.1897 146.576 96.103C146.818 96.0077 147.078 95.882 147.356 95.726C147.581 95.596 147.733 95.531 147.811 95.531ZM145.536 91.332C144.981 91.332 144.535 91.5053 144.197 91.852C143.867 92.1987 143.672 92.6883 143.612 93.321H147.291C147.273 92.6797 147.113 92.19 146.81 91.852C146.506 91.5053 146.082 91.332 145.536 91.332ZM152.898 90.539C153.262 90.513 153.444 90.6603 153.444 90.981C153.444 91.1197 153.405 91.2323 153.327 91.319C153.249 91.397 153.115 91.4447 152.924 91.462L152.534 91.501C151.953 91.553 151.52 91.761 151.234 92.125C150.957 92.4803 150.818 92.9007 150.818 93.386V96.545C150.818 96.7183 150.77 96.8483 150.675 96.935C150.58 97.0217 150.454 97.065 150.298 97.065C150.142 97.065 150.012 97.0217 149.908 96.935C149.813 96.8397 149.765 96.7097 149.765 96.545V91.059C149.765 90.8943 149.817 90.7687 149.921 90.682C150.025 90.5867 150.151 90.539 150.298 90.539C150.437 90.539 150.554 90.5867 150.649 90.682C150.744 90.7687 150.792 90.89 150.792 91.046V91.774C150.974 91.3927 151.23 91.1023 151.559 90.903C151.897 90.7037 152.283 90.5867 152.716 90.552L152.898 90.539ZM156.417 97.091C156.018 97.091 155.637 97.0433 155.273 96.948C154.917 96.8527 154.601 96.7183 154.324 96.545C154.168 96.441 154.055 96.3457 153.986 96.259C153.925 96.1637 153.895 96.051 153.895 95.921C153.895 95.8083 153.925 95.7173 153.986 95.648C154.055 95.57 154.142 95.531 154.246 95.531C154.35 95.531 154.501 95.596 154.701 95.726C154.961 95.882 155.216 96.0077 155.468 96.103C155.728 96.1897 156.048 96.233 156.43 96.233C156.898 96.233 157.262 96.1507 157.522 95.986C157.782 95.8213 157.912 95.583 157.912 95.271C157.912 95.0803 157.864 94.9287 157.769 94.816C157.673 94.6947 157.509 94.5907 157.275 94.504C157.041 94.4087 156.698 94.3133 156.248 94.218C155.485 94.0533 154.939 93.8323 154.61 93.555C154.28 93.2777 154.116 92.9007 154.116 92.424C154.116 92.0513 154.22 91.722 154.428 91.436C154.636 91.15 154.922 90.9247 155.286 90.76C155.658 90.5953 156.079 90.513 156.547 90.513C156.885 90.513 157.21 90.5607 157.522 90.656C157.842 90.7427 158.124 90.8683 158.367 91.033C158.661 91.241 158.809 91.4577 158.809 91.683C158.809 91.7957 158.774 91.891 158.705 91.969C158.635 92.047 158.553 92.086 158.458 92.086C158.354 92.086 158.198 92.0123 157.99 91.865C157.747 91.709 157.517 91.5877 157.301 91.501C157.084 91.4143 156.815 91.371 156.495 91.371C156.087 91.371 155.758 91.462 155.507 91.644C155.264 91.826 155.143 92.0687 155.143 92.372C155.143 92.5627 155.186 92.7187 155.273 92.84C155.368 92.9527 155.52 93.0567 155.728 93.152C155.944 93.2387 156.252 93.3253 156.651 93.412C157.24 93.542 157.695 93.685 158.016 93.841C158.345 93.997 158.579 94.1877 158.718 94.413C158.856 94.6383 158.926 94.9243 158.926 95.271C158.926 95.817 158.696 96.259 158.237 96.597C157.777 96.9263 157.171 97.091 156.417 97.091ZM165.432 95.531C165.527 95.531 165.609 95.57 165.679 95.648C165.748 95.726 165.783 95.8257 165.783 95.947C165.783 96.1637 165.631 96.363 165.328 96.545C165.016 96.727 164.686 96.8657 164.34 96.961C163.993 97.0477 163.655 97.091 163.326 97.091C162.346 97.091 161.571 96.8007 160.999 96.22C160.435 95.6393 160.154 94.8377 160.154 93.815C160.154 93.165 160.279 92.593 160.531 92.099C160.782 91.5963 161.133 91.2063 161.584 90.929C162.043 90.6517 162.563 90.513 163.144 90.513C163.967 90.513 164.621 90.7817 165.107 91.319C165.592 91.8563 165.835 92.5843 165.835 93.503C165.835 93.6763 165.8 93.802 165.731 93.88C165.661 93.958 165.549 93.997 165.393 93.997H161.207C161.285 95.4877 161.991 96.233 163.326 96.233C163.664 96.233 163.954 96.1897 164.197 96.103C164.439 96.0077 164.699 95.882 164.977 95.726C165.202 95.596 165.354 95.531 165.432 95.531ZM163.157 91.332C162.602 91.332 162.156 91.5053 161.818 91.852C161.488 92.1987 161.293 92.6883 161.233 93.321H164.912C164.894 92.6797 164.734 92.19 164.431 91.852C164.127 91.5053 163.703 91.332 163.157 91.332ZM172.469 87.77C172.634 87.77 172.764 87.8177 172.859 87.913C172.954 88.0083 173.002 88.1297 173.002 88.277V96.545C173.002 96.701 172.954 96.8267 172.859 96.922C172.764 97.0173 172.634 97.065 172.469 97.065C172.304 97.065 172.174 97.0173 172.079 96.922C171.992 96.8267 171.949 96.701 171.949 96.545V95.843C171.758 96.2417 171.477 96.5493 171.104 96.766C170.74 96.9827 170.311 97.091 169.817 97.091C169.262 97.091 168.773 96.9523 168.348 96.675C167.923 96.3977 167.594 96.012 167.36 95.518C167.126 95.0153 167.009 94.4347 167.009 93.776C167.009 93.126 167.126 92.554 167.36 92.06C167.594 91.566 167.923 91.1847 168.348 90.916C168.773 90.6473 169.262 90.513 169.817 90.513C170.311 90.513 170.74 90.6213 171.104 90.838C171.477 91.0547 171.758 91.3623 171.949 91.761V88.277C171.949 88.121 171.992 87.9997 172.079 87.913C172.174 87.8177 172.304 87.77 172.469 87.77ZM170.025 96.22C170.64 96.22 171.113 96.012 171.442 95.596C171.78 95.1713 171.949 94.5733 171.949 93.802C171.949 93.0307 171.78 92.437 171.442 92.021C171.113 91.605 170.64 91.397 170.025 91.397C169.41 91.397 168.929 91.605 168.582 92.021C168.244 92.437 168.075 93.022 168.075 93.776C168.075 94.5473 168.244 95.1497 168.582 95.583C168.929 96.0077 169.41 96.22 170.025 96.22ZM175.486 97.065C175.33 97.065 175.2 97.0217 175.096 96.935C175 96.8397 174.953 96.7097 174.953 96.545V91.059C174.953 90.8943 175 90.7687 175.096 90.682C175.2 90.5867 175.33 90.539 175.486 90.539C175.642 90.539 175.767 90.5867 175.863 90.682C175.958 90.7687 176.006 90.8943 176.006 91.059V96.545C176.006 96.7183 175.958 96.8483 175.863 96.935C175.767 97.0217 175.642 97.065 175.486 97.065ZM175.486 89.174C175.278 89.174 175.109 89.1133 174.979 88.992C174.849 88.8707 174.784 88.7103 174.784 88.511C174.784 88.3203 174.849 88.1643 174.979 88.043C175.109 87.9217 175.278 87.861 175.486 87.861C175.694 87.861 175.863 87.9217 175.993 88.043C176.123 88.1643 176.188 88.3203 176.188 88.511C176.188 88.7103 176.123 88.8707 175.993 88.992C175.863 89.1133 175.694 89.174 175.486 89.174ZM180.561 90.513C182.147 90.513 182.94 91.345 182.94 93.009V96.545C182.94 96.701 182.892 96.8267 182.797 96.922C182.71 97.0173 182.589 97.065 182.433 97.065C182.277 97.065 182.151 97.0173 182.056 96.922C181.961 96.8267 181.913 96.701 181.913 96.545V95.921C181.748 96.2937 181.497 96.584 181.159 96.792C180.821 96.9913 180.431 97.091 179.989 97.091C179.582 97.091 179.205 97.0087 178.858 96.844C178.52 96.6793 178.251 96.4497 178.052 96.155C177.853 95.8603 177.753 95.5353 177.753 95.18C177.753 94.7033 177.874 94.335 178.117 94.075C178.36 93.8063 178.758 93.6157 179.313 93.503C179.868 93.3817 180.639 93.321 181.627 93.321H181.913V92.892C181.913 92.372 181.805 91.9907 181.588 91.748C181.38 91.5053 181.038 91.384 180.561 91.384C179.972 91.384 179.374 91.5443 178.767 91.865C178.533 92.0123 178.368 92.086 178.273 92.086C178.169 92.086 178.082 92.047 178.013 91.969C177.944 91.891 177.909 91.7913 177.909 91.67C177.909 91.5487 177.944 91.4447 178.013 91.358C178.091 91.2627 178.212 91.1673 178.377 91.072C178.68 90.8987 179.023 90.7643 179.404 90.669C179.794 90.565 180.18 90.513 180.561 90.513ZM180.132 96.259C180.652 96.259 181.077 96.0857 181.406 95.739C181.744 95.3837 181.913 94.9287 181.913 94.374V93.997H181.679C180.916 93.997 180.336 94.0317 179.937 94.101C179.538 94.1617 179.252 94.27 179.079 94.426C178.914 94.5733 178.832 94.7943 178.832 95.089C178.832 95.427 178.953 95.7087 179.196 95.934C179.447 96.1507 179.759 96.259 180.132 96.259Z" fill="#858585"/>
<defs>
<clipPath id="clip0_270_7916">
<rect width="40" height="40" fill="white" transform="translate(100 37)"/>
</clipPath>
</defs>
</svg>
